<?xml version="1.0" encoding="UTF-8"?>
<svg version="1.1" xmlns="http://www.w3.org/2000/svg" width="512" height="512">
<path d="M0 0 C1.01790619 0.00215515 2.03581238 0.0043103 3.08456421 0.00653076 C17.69363523 0.05620146 32.02575853 0.30709809 46.375 3.3125 C47.34985352 3.51117676 48.32470703 3.70985352 49.32910156 3.91455078 C97.7109774 14.03517194 141.69928269 35.9516877 177.375 70.3125 C178.3640332 71.26068604 178.3640332 71.26068604 179.37304688 72.22802734 C188.86130305 81.37247479 197.6012044 90.66984009 205.375 101.3125 C206.23306152 102.46355017 207.09113451 103.61459177 207.94921875 104.765625 C213.98736829 112.95680614 219.34595521 121.47054105 224.375 130.3125 C224.73948242 130.94430176 225.10396484 131.57610352 225.47949219 132.22705078 C247.08534998 169.97532572 256.85198095 212.74189997 256.6875 255.9375 C256.68534485 256.95540619 256.6831897 257.97331238 256.68096924 259.02206421 C256.63129854 273.63113523 256.38040191 287.96325853 253.375 302.3125 C253.07698486 303.77478027 253.07698486 303.77478027 252.77294922 305.26660156 C242.65232806 353.6484774 220.7358123 397.63678269 186.375 433.3125 C185.74287598 433.97185547 185.11075195 434.63121094 184.45947266 435.31054688 C175.31502521 444.79880305 166.01765991 453.5387044 155.375 461.3125 C154.22394983 462.17056152 153.07290823 463.02863451 151.921875 463.88671875 C143.73224019 469.92427396 135.22961724 475.30707302 126.375 480.3125 C125.66778809 480.7146875 124.96057617 481.116875 124.23193359 481.53125 C101.09654164 494.5566741 75.92537591 503.30551461 49.9375 508.625 C49.21860596 508.77235596 48.49971191 508.91971191 47.7590332 509.0715332 C33.08339502 511.86090125 18.55831162 512.66142619 3.64770508 512.62817383 C0.70811513 512.6250221 -2.2304558 512.64854926 -5.16992188 512.67382812 C-18.54306192 512.71848737 -31.43916711 511.51301542 -44.625 509.3125 C-46.33055054 509.03031616 -46.33055054 509.03031616 -48.07055664 508.74243164 C-91.33802759 500.97044532 -132.38793216 480.98345309 -165.625 452.3125 C-166.37007813 451.67828125 -167.11515625 451.0440625 -167.8828125 450.390625 C-181.38779833 438.57948485 -194.05918743 425.82889772 -204.625 411.3125 C-205.48149066 410.16255169 -206.33826433 409.01281411 -207.1953125 407.86328125 C-213.23534209 399.67315742 -218.61867614 391.16870382 -223.625 382.3125 C-224.0271875 381.60528809 -224.429375 380.89807617 -224.84375 380.16943359 C-237.8691741 357.03404164 -246.61801461 331.86287591 -251.9375 305.875 C-252.08485596 305.15610596 -252.23221191 304.43721191 -252.3840332 303.6965332 C-255.35789088 288.05024391 -255.99800362 272.57681954 -255.9375 256.6875 C-255.93534485 255.66959381 -255.9331897 254.65168762 -255.93096924 253.60293579 C-255.88129854 238.99386477 -255.63040191 224.66174147 -252.625 210.3125 C-252.42632324 209.33764648 -252.22764648 208.36279297 -252.02294922 207.35839844 C-241.90232806 158.9765226 -219.9858123 114.98821731 -185.625 79.3125 C-184.99287598 78.65314453 -184.36075195 77.99378906 -183.70947266 77.31445312 C-174.56502521 67.82619695 -165.26765991 59.0862956 -154.625 51.3125 C-153.47394983 50.45443848 -152.32290823 49.59636549 -151.171875 48.73828125 C-142.98224019 42.70072604 -134.47961724 37.31792698 -125.625 32.3125 C-124.91778809 31.9103125 -124.21057617 31.508125 -123.48193359 31.09375 C-100.34654164 18.0683259 -75.17537591 9.31948539 -49.1875 4 C-48.46860596 3.85264404 -47.74971191 3.70528809 -47.0090332 3.5534668 C-31.36274391 0.57960912 -15.88931954 -0.06050362 0 0 Z " fill="#FE73A5" transform="translate(255.625,-0.3125)"/>
<path d="M0 0 C0.9173291 0.10183594 1.8346582 0.20367187 2.77978516 0.30859375 C58.85198805 6.71119947 117.0429982 28.53333543 154 73 C163.21597622 85.02217197 171.11096203 98.27050354 175 113 C175.29777344 114.11375 175.59554688 115.2275 175.90234375 116.375 C182.0713998 142.75695396 176.00051054 168.80491537 162.1328125 191.71875 C158.80750167 196.83461282 155.03117664 201.42948927 151 206 C150.27941406 206.84175781 149.55882812 207.68351563 148.81640625 208.55078125 C108.25310894 255.04311667 43.07549855 273.2031498 -16.3515625 277.6875 C-81.54724962 281.76078397 -155.72184151 266.83630448 -206.00390625 222.65234375 C-206.50809082 222.20487793 -207.01227539 221.75741211 -207.53173828 221.29638672 C-208.91157811 220.07807121 -210.31257565 218.88383855 -211.71484375 217.69140625 C-233.10587645 199.20085256 -247.80154847 171.98376561 -250.18896484 143.76660156 C-251.87679181 115.96924921 -240.51650354 90.01142839 -222.625 69.1875 C-181.14066942 22.35700058 -117.21045925 3.25875774 -56.6875 -1.6875 C-37.71918355 -2.69802074 -18.86599765 -2.14438984 0 0 Z " fill="#E8ECF4" transform="translate(292,118)"/>
<path d="M0 0 C0 91.74 0 183.48 0 278 C-8.85985629 278 -17.1531658 277.75783249 -25.875 276.6875 C-27.01412842 276.55069824 -28.15325684 276.41389648 -29.3269043 276.27294922 C-37.66671417 275.23797388 -45.80941387 273.90001058 -54 272 C-55.61057557 271.64797274 -57.22126061 271.2964461 -58.83203125 270.9453125 C-95.50884407 262.77432783 -131.23705634 247.40802998 -159.53173828 222.29638672 C-160.91157811 221.07807121 -162.31257565 219.88383855 -163.71484375 218.69140625 C-185.10587645 200.20085256 -199.80154847 172.98376561 -202.18896484 144.76660156 C-203.87679181 116.96924921 -192.51650354 91.01142839 -174.625 70.1875 C-137.20453667 27.94458655 -81.65683477 8.82838157 -27.1875 1.25 C-26.30586182 1.12214111 -25.42422363 0.99428223 -24.51586914 0.86254883 C-16.17794106 -0.22474087 -8.63216702 0 0 0 Z " fill="#FEFEFE" transform="translate(244,117)"/>
<path d="M0 0 C0.70158737 0.70878799 1.40317474 1.41757599 2.12602234 2.14784241 C5.01909012 5.04029984 7.99601296 7.84036775 10.98364258 10.63452148 C16.86661358 16.15668315 22.69230168 21.73568655 28.48859119 27.34872341 C31.98699968 30.73259207 35.50278848 34.09302413 39.06713867 37.4074707 C65.33412235 61.88024058 65.33412235 61.88024058 66.04432678 73.38314819 C65.85362971 76.97311723 65.36428955 80.35652248 64.51535034 83.84884644 C63.84279378 86.65620354 63.70275239 89.42349368 63.5546875 92.30078125 C63.34698749 93.97380401 63.120838 95.64465465 62.875 97.3125 C62.74375732 98.24650635 62.61251465 99.1805127 62.47729492 100.14282227 C54.57460494 152.74742068 30.88665542 201.70178168 -6 240 C-6.63212402 240.65935547 -7.26424805 241.31871094 -7.91552734 241.99804688 C-17.05997479 251.48630305 -26.35734009 260.2262044 -37 268 C-38.15105017 268.85806152 -39.30209177 269.71613451 -40.453125 270.57421875 C-48.64275981 276.61177396 -57.14538276 281.99457302 -66 287 C-66.70721191 287.4021875 -67.41442383 287.804375 -68.14306641 288.21875 C-94.07320592 302.81764095 -122.66635881 312.19151468 -152 317 C-152.71140137 317.11714355 -153.42280273 317.23428711 -154.15576172 317.35498047 C-158.28784225 318.0045694 -162.40510079 318.44623279 -166.57607436 318.78386974 C-168.21220606 318.92975605 -169.84611463 319.1027525 -171.47675729 319.30077839 C-179.7684007 320.26602887 -188.35520431 321.20771662 -195.59969711 316.39299011 C-200.28978107 312.6792293 -204.35524507 308.37279628 -208.46044922 304.03710938 C-210.06485172 302.4264894 -211.67413771 300.82072174 -213.28785706 299.21943665 C-217.6242432 294.88932433 -221.88975705 290.49513464 -226.1451087 286.08555794 C-230.614842 281.47762895 -235.14761034 276.93255264 -239.67385864 272.38024902 C-247.2523838 264.7412676 -254.79111488 257.06544097 -262.30078125 249.35888672 C-270.03023099 241.42700237 -277.78282238 233.51893389 -285.56738281 225.64111328 C-286.04848317 225.154233 -286.52958354 224.66735272 -287.0252627 224.1657185 C-289.43933016 221.72293689 -291.85385667 219.2806096 -294.26861167 216.83850765 C-314.25070318 196.62893519 -334.15088608 176.34013536 -354 156 C-350.58689074 156 -349.76910801 156.57736506 -346.9921875 158.421875 C-346.18313965 158.94700684 -345.3740918 159.47213867 -344.54052734 160.01318359 C-343.66090332 160.58633301 -342.7812793 161.15948242 -341.875 161.75 C-303.75080474 185.92485665 -261.5619504 196.77514847 -217 201 C-216.01185303 201.09571289 -215.02370605 201.19142578 -214.00561523 201.29003906 C-159.99278895 206.19909633 -103.9362042 195.23793532 -56 170 C-55.01773437 169.49855469 -54.03546875 168.99710938 -53.0234375 168.48046875 C-21.57255045 152.02993273 5.80991773 124.89856865 17.19140625 90.8046875 C24.67569376 64.84469509 21.4756866 39.02593881 8.51220703 15.38061523 C5.13816106 9.35622089 5.13816106 9.35622089 1.23046875 3.671875 C0 2 0 2 0 0 Z " fill="#FE468C" transform="translate(448,193)"/>
<path d="M0 0 C7.51744233 6.15266858 12.75451186 14.37178633 14.1875 24.0859375 C15.21122819 34.84970815 13.42195764 43.97598188 7.203125 52.94921875 C0.72600077 60.70109616 -7.64247574 65.86886902 -17.8125 67.0859375 C-30.08408753 67.9903062 -40.3457267 66.68736896 -50.0390625 58.6953125 C-50.62429688 58.16421875 -51.20953125 57.633125 -51.8125 57.0859375 C-52.35648437 56.59609375 -52.90046875 56.10625 -53.4609375 55.6015625 C-60.00025254 48.896275 -63.07270445 39.63056623 -63.3125 30.3984375 C-62.77451842 18.63362976 -58.6297441 9.35307839 -50 1.2734375 C-35.89127776 -10.39807745 -14.81030879 -10.07923793 0 0 Z " fill="#353B42" transform="translate(393.8125,221.9140625)"/>
<path d="M0 0 C0.70962891 0.00676758 1.41925781 0.01353516 2.15039062 0.02050781 C13.31631112 0.24136089 22.07598396 3.77808843 30.30078125 11.32421875 C38.76745347 20.26226887 39.92997109 30.28114717 39.62890625 42.10546875 C39.02361745 51.24212608 34.95914512 58.97720486 28.3125 65.3125 C17.47992283 73.62098152 6.82946386 75.21308598 -6.5234375 74.01171875 C-16.27878688 72.4884071 -24.77398695 66.96168049 -30.875 59.25 C-37.27296427 49.10150494 -38.62596206 37.0048103 -36.29296875 25.33984375 C-32.88342159 15.5159887 -25.17098968 8.44870721 -16.33203125 3.40625 C-10.83967992 0.82161408 -6.04738646 -0.08295847 0 0 Z " fill="#575C67" transform="translate(179.875,214.75)"/>
<path d="M0 0 C6.0225 -0.0825 12.045 -0.165 18.25 -0.25 C20.12461914 -0.28641602 21.99923828 -0.32283203 23.93066406 -0.36035156 C38.04048855 -0.52029078 49.22977042 1.51531278 59.6796875 11.625 C66.90583183 19.39040883 68.59890791 26.88798201 68.47045898 37.26049805 C68.05703589 47.86728091 64.84785995 55.73162338 57 63 C41.22969603 76.66521815 19.62106522 72 0 72 C0 48.24 0 24.48 0 0 Z " fill="#343A41" transform="translate(257,216)"/>
<path d="M0 0 C19.47 0 38.94 0 59 0 C59 5.28 59 10.56 59 16 C52.4 16 45.8 16 39 16 C39 34.48 39 52.96 39 72 C32.73 72 26.46 72 20 72 C20 53.52 20 35.04 20 16 C13.4 16 6.8 16 0 16 C0 10.72 0 5.44 0 0 Z " fill="#585D68" transform="translate(81,216)"/>
<path d="M0 0 C4.19960819 3.18499697 7.20161015 7.43686169 8.859375 12.41015625 C9.59962594 19.81266569 8.98891367 26.09513866 4.859375 32.41015625 C1.29254051 36.40696531 -2.82838968 38.99612684 -8.171875 39.6640625 C-14.00052897 39.97346023 -18.36379875 38.78939578 -23.140625 35.41015625 C-27.66005298 31.32661218 -29.79200656 26.90170404 -30.39453125 20.8671875 C-30.66691725 14.49686974 -29.97983128 9.6078509 -26.140625 4.41015625 C-18.96959704 -3.29133131 -9.24547862 -5.15897707 0 0 Z " fill="#E5E9F1" transform="translate(380.140625,233.58984375)"/>
<path d="M0 0 C6.10708262 2.82481162 9.69686814 6.93706573 12.1640625 13.26953125 C14.16762226 20.6254578 12.78734557 26.58368642 9.13671875 33.14453125 C6.27207311 37.42972719 2.65702411 39.95838732 -2.2890625 41.27734375 C-8.72990374 42.11309305 -13.26968342 41.51244495 -18.6015625 37.70703125 C-23.02271713 33.9613308 -26.01839914 29.8612347 -26.625 24.0703125 C-26.75788987 11.8045776 -26.75788987 11.8045776 -22.2890625 6.27734375 C-15.82038049 -0.15674637 -8.97273983 -2.8326909 0 0 Z " fill="#FBFBFC" transform="translate(188.2890625,231.72265625)"/>
<path d="M0 0 C20.96938776 0 20.96938776 0 26.54296875 5.53125 C31.4211704 11.1063376 31.35091678 15.21289159 31.26953125 22.44140625 C30.91692858 27.09678359 30.09399224 30.45176513 27 34 C18.03949461 41.17561599 12.6771703 40 0 40 C0 26.8 0 13.6 0 0 Z " fill="#E6EAF2" transform="translate(275,232)"/>
<path d="M0 0 C3.5542299 0.64622362 5.59136218 1.42940796 8.4375 3.625 C10.89678744 7.31393116 11.13055579 10.34141421 10.4375 14.625 C8.3130173 18.06812714 7.28897359 19.34117547 3.4375 20.625 C0.125 21.125 0.125 21.125 -3.5625 20.625 C-7.14794653 17.91634389 -9.22487478 14.97550088 -10.3125 10.625 C-8.88896235 4.93084938 -5.88083207 1.03172492 0 0 Z " fill="#373D44" transform="translate(424.5625,268.375)"/>
<path d="M0 0 C3.49406769 1.66762322 4.82670681 2.74006022 7 6 C7.67226891 12.94677871 7.67226891 12.94677871 5.125 16.9375 C1.89661432 20.07093316 -0.44929709 20.39218693 -4.9609375 20.359375 C-8.38006698 19.7567698 -9.93189052 17.63213933 -12 15 C-13.45147903 12.09704195 -13.37239025 10.22738221 -13 7 C-9.55818378 1.43915514 -6.51289739 -0.51081548 0 0 Z " fill="#373D44" transform="translate(428,235)"/>
</svg>
