<?xml version="1.0" encoding="UTF-8"?>
<svg version="1.1" xmlns="http://www.w3.org/2000/svg" width="512" height="512">
<path d="M0 0 C1.95926745 -0.01863306 1.95926745 -0.01863306 3.95811605 -0.03764254 C5.40594691 -0.02614153 6.85377409 -0.01416932 8.3015976 -0.0017767 C9.84090836 -0.00682123 11.38021326 -0.01404935 12.91950464 -0.02327484 C17.15153873 -0.04223756 21.38299649 -0.029941 25.61501622 -0.0125519 C30.17815177 0.00079774 34.74120164 -0.01460634 39.30432892 -0.02637386 C48.24430635 -0.0447728 57.18406552 -0.03622312 66.12403619 -0.01828564 C73.38838328 -0.00427172 80.65267103 -0.00036424 87.91703033 -0.00372791 C88.95011901 -0.00420536 89.98320769 -0.0046828 91.04760209 -0.00517471 C93.14616678 -0.00620102 95.24473145 -0.00725637 97.34329611 -0.00834047 C115.90850121 -0.0169121 134.47360079 -0.00021753 153.03878021 0.02948856 C171.06193728 0.05832707 189.08494234 0.0654101 207.10811615 0.04999638 C226.72445591 0.03324318 246.34072347 0.02919101 265.95706511 0.04670674 C268.04799874 0.04855116 270.13893238 0.05038589 272.22986603 0.05221081 C273.77311797 0.05357894 273.77311797 0.05357894 275.34754673 0.05497472 C282.60489184 0.06058559 289.86220177 0.0572678 297.11954498 0.05066586 C305.96136979 0.04294201 314.80304483 0.04965099 323.64483941 0.0748409 C328.15786222 0.08735801 332.67065163 0.09345575 337.1836834 0.08229923 C341.31283021 0.07228428 345.44151079 0.08065741 349.57060069 0.10388041 C351.06648475 0.10905474 352.56241033 0.10745086 354.05827647 0.09848576 C356.08779876 0.08733166 358.11741602 0.10308912 360.14689636 0.12025452 C361.83961111 0.12204174 361.83961111 0.12204174 363.56652212 0.12386507 C367.25058395 0.73958204 368.91685577 2.05277593 371.57344818 4.62641239 C373.15553092 7.79057786 372.71414937 11.19272236 372.70766926 14.66722679 C372.71002149 15.51222334 372.71237372 16.35721989 372.71479723 17.22782239 C372.7215121 20.09029736 372.72102826 22.95272719 372.7206192 25.81520939 C372.72391627 27.87577293 372.7276415 29.93633582 372.73176068 31.99689788 C372.7418065 37.68351398 372.74550161 43.37011954 372.74814999 49.05674326 C372.75204536 55.18024657 372.76162416 61.30374146 372.77036285 67.42723942 C372.78921273 81.52701626 372.79938613 95.62679117 372.80782353 109.72657707 C372.81202754 116.69085974 372.81724984 123.65514153 372.82250806 130.61942346 C372.84039893 154.44872313 372.85539624 178.27802304 372.86282825 202.10732841 C372.86330302 203.60377041 372.8637789 205.1002124 372.86425592 206.5966544 C372.86449229 207.33877046 372.86472867 208.08088652 372.86497221 208.84549095 C372.86617343 212.60555396 372.86738887 216.36561697 372.8686142 220.12567997 C372.86885435 220.87188175 372.8690945 221.61808353 372.86934192 222.38689748 C372.87723775 246.58951065 372.90067507 270.79207486 372.93317014 294.99466664 C372.96744583 320.5700572 372.98717726 346.14541909 372.9904725 371.720833 C372.99089005 374.52685528 372.99136962 377.33287754 372.99189568 380.1388998 C372.99201887 380.82984493 372.99214206 381.52079005 372.99226898 382.23267291 C372.99460376 393.3654231 373.01027907 404.49811654 373.03073752 415.63084648 C373.05096461 426.81485555 373.05615343 437.99879728 373.04696689 449.18282751 C373.04240518 455.24515345 373.04441667 461.30729463 373.06372833 467.36959553 C373.08123949 472.91436728 373.08046093 478.45881786 373.06483104 484.00359245 C373.06243655 486.01437935 373.06687279 488.0251878 373.07865969 490.03594158 C373.09364673 492.76038181 373.08419815 495.48366445 373.06843281 498.20807457 C373.07865501 498.99654053 373.08887722 499.78500648 373.09940919 500.59736535 C373.05208857 504.32057557 372.70178067 506.42686111 370.66751164 509.59005851 C367.25875809 512.90487139 365.18072907 512.75380251 360.51603985 512.76342678 C359.2158347 512.76850132 357.91562954 512.77357587 356.57602423 512.77880418 C355.1193703 512.77940591 353.66271632 512.77990498 352.20606232 512.78031254 C350.669348 512.78432555 349.13263474 512.7887635 347.59592277 512.7935921 C343.35730826 512.80558129 339.11870515 512.81121145 334.880077 512.81577325 C330.31486741 512.82172039 325.74967151 512.83333235 321.18447113 512.84406376 C310.1521915 512.86860685 299.11990733 512.88321702 288.08760878 512.89612383 C284.97338112 512.89983415 281.85915391 512.9038075 278.74492669 512.90787649 C259.41954348 512.93310964 240.09415959 512.95516987 220.76876354 512.96760464 C216.29065384 512.97053449 211.81254416 512.97349613 207.33443451 512.97651005 C206.22137775 512.9772561 205.108321 512.97800215 203.96153525 512.97877081 C185.92015001 512.9914315 167.87886317 513.02466316 149.83752396 513.06631188 C131.32896272 513.10869017 112.82045191 513.13229486 94.31184226 513.1375252 C83.91417674 513.14094382 73.51666503 513.15275205 63.11904716 513.18562794 C54.26618208 513.21357315 45.41350232 513.22465213 36.56059655 513.21343248 C32.04144548 513.20823175 27.52268283 513.21122383 23.00358772 513.23589802 C18.8687247 513.25828648 14.73453145 513.25773254 10.59965751 513.23869415 C9.10164796 513.23587944 7.60359399 513.24157387 6.10565623 513.25650708 C4.07331588 513.27553349 2.04074296 513.26087111 0.00837994 513.24444485 C-1.12172278 513.24580138 -2.2518255 513.24715791 -3.41617376 513.24855554 C-7.55902342 512.39236888 -8.9750645 511.05499435 -11.42655182 507.62641239 C-11.91779786 504.62124586 -12.10017335 502.18584395 -12.05575752 499.18521976 C-12.06302473 498.33338494 -12.07029193 497.48155011 -12.07777935 496.6039021 C-12.09609664 493.73579788 -12.07864284 490.86901964 -12.06147003 488.00092411 C-12.06722855 485.92951554 -12.07516785 483.85811206 -12.08510625 481.78671932 C-12.10603961 476.08394081 -12.09563478 470.38157897 -12.08017516 464.67879868 C-12.06889216 458.53282839 -12.0863092 452.38693127 -12.10007477 446.24097538 C-12.12105634 434.89341007 -12.1191914 423.5460152 -12.10551743 412.19845408 C-12.09294777 401.71607221 -12.08965233 391.23373922 -12.09563065 380.75135136 C-12.09601257 380.05647459 -12.0963945 379.36159783 -12.096788 378.6456642 C-12.09834465 375.8250494 -12.09993664 373.00443463 -12.10158681 370.18381988 C-12.11688748 343.71539017 -12.10300556 317.2470454 -12.07610233 290.7786288 C-12.05237364 267.2545372 -12.05449676 243.73058093 -12.07840729 220.20649052 C-12.10517093 193.78698811 -12.11580244 167.36756077 -12.10034597 140.94804668 C-12.09874234 138.13252228 -12.09717814 135.31699786 -12.09563065 132.50147343 C-12.09523526 131.8082015 -12.09483987 131.11492958 -12.0944325 130.40064941 C-12.08874119 119.92394225 -12.09540384 109.44728929 -12.10802841 98.97058964 C-12.12230908 87.06004376 -12.11830164 75.14965775 -12.09162469 63.2391181 C-12.07845579 57.15852152 -12.07338662 51.07820006 -12.08987045 44.99760532 C-12.10471912 39.4362123 -12.09666565 33.87535059 -12.06998269 28.31400609 C-12.06437614 26.2972616 -12.06728649 24.28047265 -12.07936163 22.26375651 C-12.09447442 19.53105962 -12.07906997 16.80020426 -12.05575752 14.06760502 C-12.06746335 13.27678791 -12.07916918 12.48597081 -12.09122974 11.67118955 C-12.02499881 7.81122228 -11.55434038 5.80505883 -9.28888595 2.63798863 C-5.87664287 0.23995025 -4.14114355 0.00098967 0 0 Z " fill="#FEFEFE" transform="translate(24.426551818847656,-0.6264123916625977)"/>
<path d="M0 0 C1.95926745 -0.01863306 1.95926745 -0.01863306 3.95811605 -0.03764254 C5.40594691 -0.02614153 6.85377409 -0.01416932 8.3015976 -0.0017767 C9.84090836 -0.00682123 11.38021326 -0.01404935 12.91950464 -0.02327484 C17.15153873 -0.04223756 21.38299649 -0.029941 25.61501622 -0.0125519 C30.17815177 0.00079774 34.74120164 -0.01460634 39.30432892 -0.02637386 C48.24430635 -0.0447728 57.18406552 -0.03622312 66.12403619 -0.01828564 C73.38838328 -0.00427172 80.65267103 -0.00036424 87.91703033 -0.00372791 C88.95011901 -0.00420536 89.98320769 -0.0046828 91.04760209 -0.00517471 C93.14616678 -0.00620102 95.24473145 -0.00725637 97.34329611 -0.00834047 C115.90850121 -0.0169121 134.47360079 -0.00021753 153.03878021 0.02948856 C171.06193728 0.05832707 189.08494234 0.0654101 207.10811615 0.04999638 C226.72445591 0.03324318 246.34072347 0.02919101 265.95706511 0.04670674 C268.04799874 0.04855116 270.13893238 0.05038589 272.22986603 0.05221081 C273.77311797 0.05357894 273.77311797 0.05357894 275.34754673 0.05497472 C282.60489184 0.06058559 289.86220177 0.0572678 297.11954498 0.05066586 C305.96136979 0.04294201 314.80304483 0.04965099 323.64483941 0.0748409 C328.15786222 0.08735801 332.67065163 0.09345575 337.1836834 0.08229923 C341.31283021 0.07228428 345.44151079 0.08065741 349.57060069 0.10388041 C351.06648475 0.10905474 352.56241033 0.10745086 354.05827647 0.09848576 C356.08779876 0.08733166 358.11741602 0.10308912 360.14689636 0.12025452 C361.83961111 0.12204174 361.83961111 0.12204174 363.56652212 0.12386507 C367.25058395 0.73958204 368.91685577 2.05277593 371.57344818 4.62641239 C373.15553092 7.79057786 372.71414937 11.19272236 372.70766926 14.66722679 C372.71002149 15.51222334 372.71237372 16.35721989 372.71479723 17.22782239 C372.7215121 20.09029736 372.72102826 22.95272719 372.7206192 25.81520939 C372.72391627 27.87577293 372.7276415 29.93633582 372.73176068 31.99689788 C372.7418065 37.68351398 372.74550161 43.37011954 372.74814999 49.05674326 C372.75204536 55.18024657 372.76162416 61.30374146 372.77036285 67.42723942 C372.78921273 81.52701626 372.79938613 95.62679117 372.80782353 109.72657707 C372.81202754 116.69085974 372.81724984 123.65514153 372.82250806 130.61942346 C372.84039893 154.44872313 372.85539624 178.27802304 372.86282825 202.10732841 C372.86330302 203.60377041 372.8637789 205.1002124 372.86425592 206.5966544 C372.86449229 207.33877046 372.86472867 208.08088652 372.86497221 208.84549095 C372.86617343 212.60555396 372.86738887 216.36561697 372.8686142 220.12567997 C372.86885435 220.87188175 372.8690945 221.61808353 372.86934192 222.38689748 C372.87723775 246.58951065 372.90067507 270.79207486 372.93317014 294.99466664 C372.96744583 320.5700572 372.98717726 346.14541909 372.9904725 371.720833 C372.99089005 374.52685528 372.99136962 377.33287754 372.99189568 380.1388998 C372.99201887 380.82984493 372.99214206 381.52079005 372.99226898 382.23267291 C372.99460376 393.3654231 373.01027907 404.49811654 373.03073752 415.63084648 C373.05096461 426.81485555 373.05615343 437.99879728 373.04696689 449.18282751 C373.04240518 455.24515345 373.04441667 461.30729463 373.06372833 467.36959553 C373.08123949 472.91436728 373.08046093 478.45881786 373.06483104 484.00359245 C373.06243655 486.01437935 373.06687279 488.0251878 373.07865969 490.03594158 C373.09364673 492.76038181 373.08419815 495.48366445 373.06843281 498.20807457 C373.07865501 498.99654053 373.08887722 499.78500648 373.09940919 500.59736535 C373.05208857 504.32057557 372.70178067 506.42686111 370.66751164 509.59005851 C367.25875809 512.90487139 365.18072907 512.75380251 360.51603985 512.76342678 C359.2158347 512.76850132 357.91562954 512.77357587 356.57602423 512.77880418 C355.1193703 512.77940591 353.66271632 512.77990498 352.20606232 512.78031254 C350.669348 512.78432555 349.13263474 512.7887635 347.59592277 512.7935921 C343.35730826 512.80558129 339.11870515 512.81121145 334.880077 512.81577325 C330.31486741 512.82172039 325.74967151 512.83333235 321.18447113 512.84406376 C310.1521915 512.86860685 299.11990733 512.88321702 288.08760878 512.89612383 C284.97338112 512.89983415 281.85915391 512.9038075 278.74492669 512.90787649 C259.41954348 512.93310964 240.09415959 512.95516987 220.76876354 512.96760464 C216.29065384 512.97053449 211.81254416 512.97349613 207.33443451 512.97651005 C206.22137775 512.9772561 205.108321 512.97800215 203.96153525 512.97877081 C185.92015001 512.9914315 167.87886317 513.02466316 149.83752396 513.06631188 C131.32896272 513.10869017 112.82045191 513.13229486 94.31184226 513.1375252 C83.91417674 513.14094382 73.51666503 513.15275205 63.11904716 513.18562794 C54.26618208 513.21357315 45.41350232 513.22465213 36.56059655 513.21343248 C32.04144548 513.20823175 27.52268283 513.21122383 23.00358772 513.23589802 C18.8687247 513.25828648 14.73453145 513.25773254 10.59965751 513.23869415 C9.10164796 513.23587944 7.60359399 513.24157387 6.10565623 513.25650708 C4.07331588 513.27553349 2.04074296 513.26087111 0.00837994 513.24444485 C-1.12172278 513.24580138 -2.2518255 513.24715791 -3.41617376 513.24855554 C-7.55902342 512.39236888 -8.9750645 511.05499435 -11.42655182 507.62641239 C-11.91779786 504.62124586 -12.10017335 502.18584395 -12.05575752 499.18521976 C-12.06302473 498.33338494 -12.07029193 497.48155011 -12.07777935 496.6039021 C-12.09609664 493.73579788 -12.07864284 490.86901964 -12.06147003 488.00092411 C-12.06722855 485.92951554 -12.07516785 483.85811206 -12.08510625 481.78671932 C-12.10603961 476.08394081 -12.09563478 470.38157897 -12.08017516 464.67879868 C-12.06889216 458.53282839 -12.0863092 452.38693127 -12.10007477 446.24097538 C-12.12105634 434.89341007 -12.1191914 423.5460152 -12.10551743 412.19845408 C-12.09294777 401.71607221 -12.08965233 391.23373922 -12.09563065 380.75135136 C-12.09601257 380.05647459 -12.0963945 379.36159783 -12.096788 378.6456642 C-12.09834465 375.8250494 -12.09993664 373.00443463 -12.10158681 370.18381988 C-12.11688748 343.71539017 -12.10300556 317.2470454 -12.07610233 290.7786288 C-12.05237364 267.2545372 -12.05449676 243.73058093 -12.07840729 220.20649052 C-12.10517093 193.78698811 -12.11580244 167.36756077 -12.10034597 140.94804668 C-12.09874234 138.13252228 -12.09717814 135.31699786 -12.09563065 132.50147343 C-12.09523526 131.8082015 -12.09483987 131.11492958 -12.0944325 130.40064941 C-12.08874119 119.92394225 -12.09540384 109.44728929 -12.10802841 98.97058964 C-12.12230908 87.06004376 -12.11830164 75.14965775 -12.09162469 63.2391181 C-12.07845579 57.15852152 -12.07338662 51.07820006 -12.08987045 44.99760532 C-12.10471912 39.4362123 -12.09666565 33.87535059 -12.06998269 28.31400609 C-12.06437614 26.2972616 -12.06728649 24.28047265 -12.07936163 22.26375651 C-12.09447442 19.53105962 -12.07906997 16.80020426 -12.05575752 14.06760502 C-12.06746335 13.27678791 -12.07916918 12.48597081 -12.09122974 11.67118955 C-12.02499881 7.81122228 -11.55434038 5.80505883 -9.28888595 2.63798863 C-5.87664287 0.23995025 -4.14114355 0.00098967 0 0 Z M154.57344818 20.62641239 C141.7267785 43.10808433 130.1639209 64.70549485 120.57344818 88.62641239 C120.25118256 89.42869267 119.92891693 90.23097294 119.59688568 91.05756474 C118.42602868 94.05925363 117.57344818 96.37491853 117.57344818 99.62641239 C115.90282318 99.71922489 115.90282318 99.71922489 114.19844818 99.81391239 C105.99025296 100.85991249 98.05524246 105.4754789 92.57344818 111.62641239 C84.29382859 122.94752489 82.08194437 132.83611483 83.57344818 146.62641239 C85.57374667 154.77048481 89.64675842 160.80422345 95.57344818 166.62641239 C97.57344818 168.62641239 97.57344818 168.62641239 97.62032318 172.12641239 C97.5322052 173.62708823 97.43271804 175.12712828 97.32344818 176.62641239 C97.28348724 177.32508427 97.24352631 178.02375614 97.20235443 178.74359989 C96.95621404 182.58871194 96.60515799 186.3901341 96.09249115 190.21015263 C94.12035664 204.99420229 94.17551457 219.79734346 94.19844818 234.68891239 C94.19868736 235.37630875 94.19892654 236.0637051 94.19917297 236.77193165 C94.20850451 257.97029662 94.71105103 278.71669326 98.57344818 299.62641239 C98.79838959 300.87986454 99.02333099 302.13331669 99.25508881 303.42475224 C102.12344428 319.08020481 105.77760319 334.45161979 110.57344818 349.62641239 C110.89684174 350.65943485 111.22023529 351.69245731 111.55342865 352.75678349 C126.35957697 399.67398168 148.41584721 444.33069883 179.57344818 482.62641239 C183.53344818 487.57641239 183.53344818 487.57641239 187.57344818 492.62641239 C242.02344818 492.62641239 296.47344818 492.62641239 352.57344818 492.62641239 C352.57344818 336.86641239 352.57344818 181.10641239 352.57344818 20.62641239 C287.23344818 20.62641239 221.89344818 20.62641239 154.57344818 20.62641239 Z " fill="#D1DBFC" transform="translate(24.426551818847656,-0.6264123916625977)"/>
<path d="M0 0 C1.95926745 -0.01863306 1.95926745 -0.01863306 3.95811605 -0.03764254 C5.40594691 -0.02614153 6.85377409 -0.01416932 8.3015976 -0.0017767 C9.84090836 -0.00682123 11.38021326 -0.01404935 12.91950464 -0.02327484 C17.15153873 -0.04223756 21.38299649 -0.029941 25.61501622 -0.0125519 C30.17815177 0.00079774 34.74120164 -0.01460634 39.30432892 -0.02637386 C48.24430635 -0.0447728 57.18406552 -0.03622312 66.12403619 -0.01828564 C73.38838328 -0.00427172 80.65267103 -0.00036424 87.91703033 -0.00372791 C88.95011901 -0.00420536 89.98320769 -0.0046828 91.04760209 -0.00517471 C93.14616678 -0.00620102 95.24473145 -0.00725637 97.34329611 -0.00834047 C115.90850121 -0.0169121 134.47360079 -0.00021753 153.03878021 0.02948856 C171.06193728 0.05832707 189.08494234 0.0654101 207.10811615 0.04999638 C226.72445591 0.03324318 246.34072347 0.02919101 265.95706511 0.04670674 C268.04799874 0.04855116 270.13893238 0.05038589 272.22986603 0.05221081 C273.77311797 0.05357894 273.77311797 0.05357894 275.34754673 0.05497472 C282.60489184 0.06058559 289.86220177 0.0572678 297.11954498 0.05066586 C305.96136979 0.04294201 314.80304483 0.04965099 323.64483941 0.0748409 C328.15786222 0.08735801 332.67065163 0.09345575 337.1836834 0.08229923 C341.31283021 0.07228428 345.44151079 0.08065741 349.57060069 0.10388041 C351.06648475 0.10905474 352.56241033 0.10745086 354.05827647 0.09848576 C356.08779876 0.08733166 358.11741602 0.10308912 360.14689636 0.12025452 C361.83961111 0.12204174 361.83961111 0.12204174 363.56652212 0.12386507 C367.25058395 0.73958204 368.91685577 2.05277593 371.57344818 4.62641239 C373.15553092 7.79057786 372.71414937 11.19272236 372.70766926 14.66722679 C372.71002149 15.51222334 372.71237372 16.35721989 372.71479723 17.22782239 C372.7215121 20.09029736 372.72102826 22.95272719 372.7206192 25.81520939 C372.72391627 27.87577293 372.7276415 29.93633582 372.73176068 31.99689788 C372.7418065 37.68351398 372.74550161 43.37011954 372.74814999 49.05674326 C372.75204536 55.18024657 372.76162416 61.30374146 372.77036285 67.42723942 C372.78921273 81.52701626 372.79938613 95.62679117 372.80782353 109.72657707 C372.81202754 116.69085974 372.81724984 123.65514153 372.82250806 130.61942346 C372.84039893 154.44872313 372.85539624 178.27802304 372.86282825 202.10732841 C372.86330302 203.60377041 372.8637789 205.1002124 372.86425592 206.5966544 C372.86449229 207.33877046 372.86472867 208.08088652 372.86497221 208.84549095 C372.86617343 212.60555396 372.86738887 216.36561697 372.8686142 220.12567997 C372.86885435 220.87188175 372.8690945 221.61808353 372.86934192 222.38689748 C372.87723775 246.58951065 372.90067507 270.79207486 372.93317014 294.99466664 C372.96744583 320.5700572 372.98717726 346.14541909 372.9904725 371.720833 C372.99089005 374.52685528 372.99136962 377.33287754 372.99189568 380.1388998 C372.99201887 380.82984493 372.99214206 381.52079005 372.99226898 382.23267291 C372.99460376 393.3654231 373.01027907 404.49811654 373.03073752 415.63084648 C373.05096461 426.81485555 373.05615343 437.99879728 373.04696689 449.18282751 C373.04240518 455.24515345 373.04441667 461.30729463 373.06372833 467.36959553 C373.08123949 472.91436728 373.08046093 478.45881786 373.06483104 484.00359245 C373.06243655 486.01437935 373.06687279 488.0251878 373.07865969 490.03594158 C373.09364673 492.76038181 373.08419815 495.48366445 373.06843281 498.20807457 C373.07865501 498.99654053 373.08887722 499.78500648 373.09940919 500.59736535 C373.05208857 504.32057557 372.70178067 506.42686111 370.66751164 509.59005851 C367.25875809 512.90487139 365.18072907 512.75380251 360.51603985 512.76342678 C359.2158347 512.76850132 357.91562954 512.77357587 356.57602423 512.77880418 C355.1193703 512.77940591 353.66271632 512.77990498 352.20606232 512.78031254 C350.669348 512.78432555 349.13263474 512.7887635 347.59592277 512.7935921 C343.35730826 512.80558129 339.11870515 512.81121145 334.880077 512.81577325 C330.31486741 512.82172039 325.74967151 512.83333235 321.18447113 512.84406376 C310.1521915 512.86860685 299.11990733 512.88321702 288.08760878 512.89612383 C284.97338112 512.89983415 281.85915391 512.9038075 278.74492669 512.90787649 C259.41954348 512.93310964 240.09415959 512.95516987 220.76876354 512.96760464 C216.29065384 512.97053449 211.81254416 512.97349613 207.33443451 512.97651005 C206.22137775 512.9772561 205.108321 512.97800215 203.96153525 512.97877081 C185.92015001 512.9914315 167.87886317 513.02466316 149.83752396 513.06631188 C131.32896272 513.10869017 112.82045191 513.13229486 94.31184226 513.1375252 C83.91417674 513.14094382 73.51666503 513.15275205 63.11904716 513.18562794 C54.26618208 513.21357315 45.41350232 513.22465213 36.56059655 513.21343248 C32.04144548 513.20823175 27.52268283 513.21122383 23.00358772 513.23589802 C18.8687247 513.25828648 14.73453145 513.25773254 10.59965751 513.23869415 C9.10164796 513.23587944 7.60359399 513.24157387 6.10565623 513.25650708 C4.07331588 513.27553349 2.04074296 513.26087111 0.00837994 513.24444485 C-1.12172278 513.24580138 -2.2518255 513.24715791 -3.41617376 513.24855554 C-7.55902342 512.39236888 -8.9750645 511.05499435 -11.42655182 507.62641239 C-11.91779786 504.62124586 -12.10017335 502.18584395 -12.05575752 499.18521976 C-12.06302473 498.33338494 -12.07029193 497.48155011 -12.07777935 496.6039021 C-12.09609664 493.73579788 -12.07864284 490.86901964 -12.06147003 488.00092411 C-12.06722855 485.92951554 -12.07516785 483.85811206 -12.08510625 481.78671932 C-12.10603961 476.08394081 -12.09563478 470.38157897 -12.08017516 464.67879868 C-12.06889216 458.53282839 -12.0863092 452.38693127 -12.10007477 446.24097538 C-12.12105634 434.89341007 -12.1191914 423.5460152 -12.10551743 412.19845408 C-12.09294777 401.71607221 -12.08965233 391.23373922 -12.09563065 380.75135136 C-12.09601257 380.05647459 -12.0963945 379.36159783 -12.096788 378.6456642 C-12.09834465 375.8250494 -12.09993664 373.00443463 -12.10158681 370.18381988 C-12.11688748 343.71539017 -12.10300556 317.2470454 -12.07610233 290.7786288 C-12.05237364 267.2545372 -12.05449676 243.73058093 -12.07840729 220.20649052 C-12.10517093 193.78698811 -12.11580244 167.36756077 -12.10034597 140.94804668 C-12.09874234 138.13252228 -12.09717814 135.31699786 -12.09563065 132.50147343 C-12.09523526 131.8082015 -12.09483987 131.11492958 -12.0944325 130.40064941 C-12.08874119 119.92394225 -12.09540384 109.44728929 -12.10802841 98.97058964 C-12.12230908 87.06004376 -12.11830164 75.14965775 -12.09162469 63.2391181 C-12.07845579 57.15852152 -12.07338662 51.07820006 -12.08987045 44.99760532 C-12.10471912 39.4362123 -12.09666565 33.87535059 -12.06998269 28.31400609 C-12.06437614 26.2972616 -12.06728649 24.28047265 -12.07936163 22.26375651 C-12.09447442 19.53105962 -12.07906997 16.80020426 -12.05575752 14.06760502 C-12.06746335 13.27678791 -12.07916918 12.48597081 -12.09122974 11.67118955 C-12.02499881 7.81122228 -11.55434038 5.80505883 -9.28888595 2.63798863 C-5.87664287 0.23995025 -4.14114355 0.00098967 0 0 Z M8.57344818 20.62641239 C8.57344818 176.38641239 8.57344818 332.14641239 8.57344818 492.62641239 C122.09344818 492.62641239 235.61344818 492.62641239 352.57344818 492.62641239 C352.57344818 336.86641239 352.57344818 181.10641239 352.57344818 20.62641239 C239.05344818 20.62641239 125.53344818 20.62641239 8.57344818 20.62641239 Z " fill="#042974" transform="translate(24.426551818847656,-0.6264123916625977)"/>
<path d="M0 0 C8.2617959 5.53933744 13.648713 14.12424943 15.80078125 23.75 C16.23539938 28.95421649 16.210837 34.1435423 16.1884613 39.36090088 C16.1926381 40.94745534 16.19811751 42.53400681 16.20478112 44.12055278 C16.21920944 48.46478648 16.21499916 52.80883003 16.2076143 57.15307403 C16.20287837 61.84443288 16.21539635 66.53575086 16.22563171 71.22709656 C16.24281761 80.41246251 16.24366003 89.59776004 16.23841881 98.78313789 C16.23437493 106.25135465 16.23582327 113.71955123 16.24116707 121.18776703 C16.24191549 122.2513083 16.24266391 123.31484957 16.24343501 124.41061936 C16.24496652 126.57133606 16.24650487 128.73205274 16.24804998 130.89276943 C16.26177466 151.15115419 16.25633791 171.40950032 16.24486477 191.6678842 C16.23493588 210.18839969 16.24786719 228.70881523 16.27179896 247.22931531 C16.29620154 266.25795222 16.30579476 285.2865426 16.29914623 304.31519485 C16.29565615 314.99354823 16.29787201 325.67182478 16.31539726 336.35016632 C16.33013384 345.44197886 16.33073579 354.53366048 16.31332635 363.62547049 C16.30482537 368.2610355 16.30264466 372.89636678 16.31797791 377.53191948 C16.33186223 381.78219792 16.32701403 386.03204324 16.30773867 390.28229687 C16.30398974 391.81320336 16.30686845 393.34414486 16.31735032 394.87502006 C16.45779729 416.97289278 6.70752349 431.37883901 -6.87890625 447.77734375 C-9.53089922 451.1119503 -10.52832355 453.81628664 -11.19921875 457.9375 C-11.77363726 461.33743659 -12.07326098 462.58969011 -14.26171875 465.375 C-18.35164335 467.28943279 -21.76695858 467.64288726 -26.19921875 466.75 C-29.13671875 464.875 -29.13671875 464.875 -31.19921875 461.75 C-31.47651478 460.25814737 -31.70031915 458.75591253 -31.88671875 457.25 C-32.97258413 450.29012 -37.54696584 445.57883443 -41.89746094 440.32861328 C-55.13464067 424.27617439 -59.51341932 409.74403478 -59.46664429 389.28459167 C-59.47038576 387.72604936 -59.47498926 386.16750892 -59.48037493 384.60897142 C-59.49255867 380.34684626 -59.49234996 376.08479986 -59.48998618 371.82266128 C-59.48957685 367.21789787 -59.50062818 362.61315932 -59.51010132 358.00840759 C-59.52668629 348.99497992 -59.53220971 339.98157841 -59.53332607 330.96813675 C-59.53427762 323.63963065 -59.53839325 316.31113315 -59.54472733 308.98262978 C-59.56233198 288.18997477 -59.57156727 267.39734039 -59.57006638 246.60467788 C-59.56998647 245.48466299 -59.56990655 244.3646481 -59.56982422 243.21069336 C-59.56974246 242.08930603 -59.5696607 240.96791869 -59.56957646 239.81254993 C-59.56876351 221.63806002 -59.58790536 203.46365298 -59.61610095 185.28918704 C-59.64484546 166.61308683 -59.65864042 147.93702702 -59.6569134 129.26090413 C-59.6562501 118.78153279 -59.66171633 108.30224834 -59.6832695 97.82289696 C-59.70150178 88.90129435 -59.70581171 79.97981805 -59.69225065 71.05820485 C-59.6857317 66.50971289 -59.68556501 61.96146313 -59.70295715 57.41299438 C-59.7187402 53.24232887 -59.71577128 49.07209654 -59.69838889 44.90144125 C-59.69533049 43.399498 -59.69890726 41.89752198 -59.71010904 40.39561739 C-59.7960992 28.03967226 -58.45692282 16.35646269 -50.109375 6.6796875 C-36.38260863 -7.18743435 -16.98222537 -9.65241939 0 0 Z " fill="#072A74" transform="translate(483.19921875,45.25)"/>
<path d="M0 0 C4.59047821 2.63527453 7.99478431 6.17706863 10.375 10.9375 C10.47367216 12.96997081 10.50602437 15.0057559 10.50922108 17.04061794 C10.51367892 18.35105648 10.51813676 19.66149503 10.52272969 21.01164383 C10.52264039 22.47988475 10.52245052 23.94812568 10.52217102 25.41636658 C10.52546858 26.96530375 10.52919392 28.51424006 10.5333125 30.06317526 C10.54335344 34.33581443 10.54705267 38.60843955 10.54970181 42.88108885 C10.55359883 47.48322183 10.56317777 52.08534362 10.57191467 56.68746948 C10.59169916 67.81173905 10.60174913 78.93600956 10.61064246 90.06029233 C10.61502329 95.29737793 10.62039074 100.53446252 10.62563133 105.77154732 C10.6426478 123.17966852 10.65714122 140.58778908 10.66438007 157.99591732 C10.66629002 162.51591429 10.66821034 167.03591125 10.67016602 171.5559082 C10.67064976 172.67935355 10.6711335 173.80279891 10.6716319 174.96028806 C10.67992927 193.15279991 10.70525938 211.34524595 10.73774669 229.53772908 C10.77082137 248.21130176 10.78882932 266.884841 10.79202431 285.55844313 C10.79418934 296.04458256 10.80293669 306.53062609 10.82848549 317.01673698 C10.85019829 325.94919743 10.85824014 334.8815387 10.84851871 343.81402253 C10.84397531 348.37031687 10.84586243 352.92636537 10.86528015 357.48262596 C10.88292235 361.65843281 10.88190562 365.83381467 10.86638286 370.0096261 C10.86400835 371.51581377 10.86832223 373.02203094 10.88021151 374.52817356 C10.97775007 387.70673646 8.24806839 397.32429506 0.375 407.9375 C-0.47578125 409.09378906 -0.47578125 409.09378906 -1.34375 410.2734375 C-2.75665814 412.1728659 -4.18264323 414.06039031 -5.625 415.9375 C-10.00098346 414.40793171 -12.08269606 411.02282096 -14.625 407.375 C-15.05039062 406.79169922 -15.47578125 406.20839844 -15.9140625 405.60742188 C-22.88511682 395.76027306 -24.21012485 387.34069464 -24.1396637 375.43807983 C-24.14499388 373.86374564 -24.15206229 372.28941653 -24.16071075 370.71509707 C-24.17930185 366.40483582 -24.17304541 362.09491899 -24.16255772 357.78464365 C-24.15555585 353.13019747 -24.17157095 348.47582134 -24.18455505 343.82139587 C-24.20618216 334.71021669 -24.20607172 325.59916246 -24.19792951 316.48796605 C-24.19162743 309.08357505 -24.19276845 301.67922048 -24.19920158 294.27482986 C-24.20010324 293.2206577 -24.20100489 292.16648554 -24.20193387 291.08036876 C-24.20378508 288.93880568 -24.20564764 286.7972426 -24.20752143 284.65567954 C-24.22409477 264.58059182 -24.21538395 244.50557442 -24.19853585 224.43049093 C-24.18383243 206.06109563 -24.19847719 187.6918638 -24.22730602 169.32248954 C-24.25669011 150.45885596 -24.26767561 131.59529784 -24.25812382 112.73164237 C-24.25710126 110.59860779 -24.25610665 108.4655732 -24.2551403 106.3325386 C-24.25466391 105.28305247 -24.25418752 104.23356633 -24.2536967 103.15227758 C-24.25153164 95.75554585 -24.26134128 88.35888553 -24.27591133 80.96216965 C-24.29341617 71.94994095 -24.29334353 62.93792084 -24.27055968 53.92570041 C-24.2594019 49.32728779 -24.25628981 44.72924294 -24.27486038 40.13084602 C-24.29164126 35.92149885 -24.28534703 31.71284089 -24.26064359 27.50353856 C-24.25575209 25.98081593 -24.25929843 24.45803796 -24.27213103 22.93536155 C-24.37212934 10.14718455 -24.37212934 10.14718455 -21.29276943 5.63700294 C-14.73509508 -0.99867592 -8.98774892 -2.6343402 0 0 Z " fill="#FC5F50" transform="translate(468.625,61.0625)"/>
<path d="M0 0 C11.10431401 6.06177528 18.38538842 15.16930671 22.01171875 27.28125 C24.06015914 37.38817759 21.71500396 47.51053618 16.6953125 56.3828125 C12.48594805 62.57503125 8.05508244 66.85915544 1.42578125 70.32421875 C0.68972656 70.73542969 -0.04632813 71.14664063 -0.8046875 71.5703125 C-8.97417878 75.52505786 -18.87573416 75.75982669 -27.61328125 73.55859375 C-32.34105713 71.75889659 -36.51118851 69.34786916 -40.57421875 66.32421875 C-41.78271484 65.42896484 -41.78271484 65.42896484 -43.015625 64.515625 C-51.00647101 57.67155689 -54.72551228 47.79283566 -55.88671875 37.57421875 C-56.37149456 26.90915099 -52.22841336 17.51769694 -45.57421875 9.32421875 C-34.15298654 -2.99499732 -15.37607739 -6.64974515 0 0 Z " fill="#FD6252" transform="translate(328.57421875,101.67578125)"/>
<path d="M0 0 C8.42443106 5.94390414 15.73871436 14.35835754 17.75 24.75 C19.15929441 37.43364971 17.09008695 47.55476614 9.62109375 58.00390625 C3.97316325 64.95834598 -3.59667777 69.67465681 -12.3125 71.8125 C-14.1378125 71.9053125 -14.1378125 71.9053125 -16 72 C-16.95648438 72.07347656 -17.91296875 72.14695312 -18.8984375 72.22265625 C-29.88850336 72.73169731 -38.0678741 69.84377777 -46.4375 62.6875 C-53.41836731 55.93037844 -58.84706053 47.5685306 -59.43359375 37.6328125 C-59.45712821 36.13039208 -59.45794062 34.62746569 -59.4375 33.125 C-59.42920166 32.33488525 -59.42090332 31.54477051 -59.41235352 30.73071289 C-59.10846649 20.20930049 -55.17596307 12.64555575 -48 5 C-34.78787763 -7.33314542 -15.60678084 -8.88258271 0 0 Z " fill="#FC6152" transform="translate(167,104)"/>
<path d="M0 0 C1.25167969 -0.00193359 2.50335938 -0.00386719 3.79296875 -0.00585938 C5.74396484 0.02991211 5.74396484 0.02991211 7.734375 0.06640625 C9.01957031 0.05544922 10.30476563 0.04449219 11.62890625 0.03320312 C22.30128105 0.11529832 29.77691318 2.25900172 37.62890625 9.578125 C47.39031438 20.36704977 48.3495022 32.53808421 47.6796875 46.41162109 C46.89128025 55.36201441 42.08874943 64.26334792 35.6015625 70.4140625 C26.85781191 77.39191837 18.68976531 78.13086122 7.796875 78.06640625 C6.58708984 78.08638672 5.37730469 78.10636719 4.13085938 78.12695312 C2.38192383 78.12598633 2.38192383 78.12598633 0.59765625 78.125 C-0.98341919 78.12777954 -0.98341919 78.12777954 -2.59643555 78.13061523 C-6.22034232 77.50778941 -7.88974549 76.1507032 -10.515625 73.62890625 C-11.90729253 70.84557119 -11.67375926 68.53683093 -11.70849609 65.42260742 C-11.72455902 64.11752731 -11.74062195 62.8124472 -11.75717163 61.46781921 C-11.76865844 60.03584442 -11.77926709 58.60386236 -11.7890625 57.171875 C-11.79438618 56.45180079 -11.79970985 55.73172657 -11.80519485 54.98983192 C-11.83192177 51.17804656 -11.85129756 47.36629389 -11.86572266 43.55444336 C-11.88236483 39.61988811 -11.92713869 35.68617144 -11.9780941 31.7519331 C-12.01177372 28.72442173 -12.02330074 25.69710921 -12.02894974 22.66942787 C-12.03566097 21.21933907 -12.05088009 19.76926329 -12.07484055 18.31935692 C-12.1064991 16.28759802 -12.10352666 14.25538943 -12.09912109 12.22338867 C-12.10720795 11.06804123 -12.1152948 9.91269379 -12.12362671 8.72233582 C-10.80228611 1.9995355 -6.36868872 -0.00408133 0 0 Z " fill="#FD6151" transform="translate(220.515625,98.37109375)"/>
<path d="M0 0 C11.22 0 22.44 0 34 0 C34.16043524 17.7771156 34.16043524 17.7771156 34.1953125 25.41210938 C34.21913342 30.6019751 34.24717397 35.79155591 34.30175781 40.98120117 C34.34553275 45.16985361 34.36920315 49.35820011 34.37950897 53.54706383 C34.38684404 55.13731381 34.40116625 56.72754891 34.42292023 58.31766701 C34.60154256 71.92757907 32.21213033 81.92972627 24 93 C23.4328125 93.77085937 22.865625 94.54171875 22.28125 95.3359375 C20.86834186 97.2353659 19.44235677 99.12289031 18 101 C13.62401654 99.47043171 11.54230394 96.08532096 9 92.4375 C8.36191406 91.56254883 8.36191406 91.56254883 7.7109375 90.66992188 C6.4000431 88.81818301 5.19579979 86.928007 4 85 C3.63722961 84.42863312 3.27445923 83.85726624 2.9006958 83.26858521 C-1.26477877 75.50747536 -0.50198395 67.03871053 -0.390625 58.49609375 C-0.3831531 56.80502495 -0.37746466 55.11394742 -0.37347412 53.42286682 C-0.35829234 48.99876476 -0.3190762 44.57519838 -0.2746582 40.15130615 C-0.22629889 34.8290285 -0.2081359 29.50657049 -0.18484497 24.18413544 C-0.14621943 16.12238582 -0.069515 8.06180868 0 0 Z " fill="#FEFDFD" transform="translate(445,376)"/>
<path d="M0 0 C1.340751 -0.00677923 2.68149269 -0.01568409 4.0222168 -0.02655029 C7.65673805 -0.04931709 11.29054852 -0.04051825 14.92508197 -0.02465487 C18.73263103 -0.01197935 22.54012 -0.02374079 26.34767151 -0.03158569 C32.74247134 -0.04067862 39.13698232 -0.02870512 45.53173828 -0.00488281 C52.91814706 0.02231647 60.3038655 0.01352212 67.69025749 -0.01401484 C74.03780559 -0.03672922 80.38514624 -0.03989436 86.73272187 -0.02682149 C90.52126979 -0.01903816 94.30949363 -0.01795398 98.09802055 -0.03450394 C101.66142079 -0.04898334 105.22393431 -0.03886554 108.78723907 -0.01003265 C110.71355989 -0.00030245 112.63995599 -0.01509345 114.5662384 -0.03067017 C124.0125752 0.08476536 124.0125752 0.08476536 127.72743225 3.04483032 C130.66899658 6.48656816 130.7690089 8.14554369 130.48657227 12.49072266 C129.63478167 15.92275485 127.69652828 17.55545855 124.95141602 19.64697266 C122.38159067 20.93188533 120.54266144 20.78157234 117.66412354 20.79414368 C116.54254852 20.80129898 115.42097351 20.80845428 114.26541138 20.81582642 C113.02902924 20.81851532 111.79264709 20.82120422 110.51879883 20.82397461 C108.5723497 20.83383141 108.5723497 20.83383141 106.58657837 20.84388733 C103.02029816 20.86130292 99.45403136 20.87185091 95.88771915 20.88009286 C93.65944498 20.88524257 91.43117498 20.89131836 89.20290375 20.89760399 C82.23076572 20.91665892 75.2586383 20.93088857 68.28647923 20.93921596 C60.23924302 20.94898603 52.19228204 20.975298 44.14514279 21.01571685 C37.92510026 21.04588589 31.70513658 21.06068562 25.48502231 21.06399697 C21.77019722 21.06634687 18.05566607 21.07529865 14.34091949 21.10045815 C10.19430755 21.12808819 6.04830949 21.12390536 1.90161133 21.11694336 C0.67332611 21.12975342 -0.55495911 21.14256348 -1.82046509 21.15576172 C-8.14468942 21.11699746 -12.31113738 21.05328567 -17.04858398 16.64697266 C-18.18482517 14.37449028 -18.31305242 12.86394502 -18.42358398 10.33447266 C-18.47256836 9.57521484 -18.52155273 8.81595703 -18.57202148 8.03369141 C-17.97076482 5.29214048 -16.97900544 3.65337174 -14.94279289 1.7192421 C-10.52164037 -0.7834738 -4.93030261 -0.0398041 0 0 Z " fill="#6A66F7" transform="translate(203.048583984375,326.35302734375)"/>
<path d="M0 0 C1.13143433 -0.00571014 2.26286865 -0.01142029 3.42858887 -0.01730347 C4.67589279 -0.01842133 5.92319672 -0.01953918 7.20829773 -0.02069092 C9.17178665 -0.02813828 9.17178665 -0.02813828 11.17494202 -0.03573608 C14.77215151 -0.04886914 18.36934232 -0.05530693 21.96657205 -0.05974674 C24.2135997 -0.06267633 26.46062224 -0.06678095 28.70764732 -0.07125092 C35.73691768 -0.08492894 42.76617635 -0.0945938 49.79545909 -0.09845281 C57.91170511 -0.10293288 66.02778267 -0.12047701 74.14397746 -0.1494534 C80.41580975 -0.17106819 86.68759464 -0.181157 92.95946378 -0.18249393 C96.70605674 -0.18354221 100.45249141 -0.1894547 104.19904518 -0.20731354 C108.37931669 -0.22685157 112.55923564 -0.22250608 116.73954773 -0.21600342 C118.60139458 -0.22982559 118.60139458 -0.22982559 120.50085449 -0.243927 C121.64074829 -0.23835785 122.78064209 -0.2327887 123.95507812 -0.22705078 C124.94340795 -0.22851734 125.93173777 -0.2299839 126.95001698 -0.2314949 C130.19252549 0.21221714 132.0411002 1.21244585 134.66801453 3.14044189 C137.12730197 6.82937306 137.36107032 9.85685611 136.66801453 14.14044189 C134.54353182 17.58356903 133.51948811 18.85661737 129.66801453 20.14044189 C127.85263166 20.23935014 126.03383277 20.27973537 124.21577454 20.28761292 C123.08296555 20.29476822 121.95015656 20.30192352 120.78302002 20.30929565 C119.53931137 20.31198456 118.29560272 20.31467346 117.01420593 20.31744385 C115.05049797 20.32730064 115.05049797 20.32730064 113.04711914 20.33735657 C108.70461753 20.35837784 104.36211564 20.36875553 100.01957703 20.37872314 C98.52421933 20.38277109 97.02886181 20.38688803 95.53350449 20.39107323 C88.50958013 20.41011881 81.48566627 20.42435248 74.46172106 20.4326852 C66.35392546 20.44246275 58.2464025 20.46879816 50.13870299 20.50918609 C43.87109794 20.53933665 37.60357111 20.55415296 31.33589494 20.55746621 C27.59261307 20.55981748 23.84962269 20.56878776 20.10641861 20.59392738 C15.93097477 20.62151793 11.75614133 20.61738028 7.58061218 20.6104126 C6.340952 20.62322266 5.10129181 20.63603271 3.82406616 20.64923096 C2.68561752 20.64228714 1.54716888 20.63534332 0.3742218 20.62818909 C-0.6128092 20.63057744 -1.5998402 20.63296579 -2.61678123 20.63542652 C-6.10182714 20.00009894 -7.78957705 18.55451607 -10.33198547 16.14044189 C-11.93285174 12.93870936 -11.83115637 9.61467131 -11.33198547 6.14044189 C-8.0360842 0.97686323 -5.93258557 0.01787628 0 0 Z " fill="#6864F7" transform="translate(196.3319854736328,414.85955810546875)"/>
<path d="M0 0 C1.66974129 -0.00856522 1.66974129 -0.00856522 3.37321472 -0.01730347 C4.60024612 -0.01842133 5.82727753 -0.01953918 7.0914917 -0.02069092 C8.37937088 -0.02565582 9.66725006 -0.03062073 10.99415588 -0.03573608 C14.53358311 -0.04886951 18.07299136 -0.05530718 21.61243916 -0.05974674 C23.82396259 -0.0626767 26.03548083 -0.06678142 28.24700165 -0.07125092 C35.16681719 -0.08492998 42.08662086 -0.09459393 49.00644898 -0.09845281 C56.99307508 -0.10293099 64.9795298 -0.12046594 72.96610379 -0.1494534 C79.13943877 -0.17108118 85.31272559 -0.18115771 91.48609805 -0.18249393 C95.17292028 -0.18354142 98.85958151 -0.18943692 102.54636383 -0.20731354 C106.66177228 -0.2268794 110.77682312 -0.2225009 114.89227295 -0.21600342 C116.11120743 -0.2252182 117.33014191 -0.23443298 118.58601379 -0.243927 C129.10542883 -0.1918262 129.10542883 -0.1918262 133.75067139 3.14044189 C135.76538735 6.16251584 136.08786173 7.05770888 136.18817139 10.51544189 C136.22813232 11.26567627 136.26809326 12.01591064 136.30926514 12.78887939 C135.66791602 15.48882461 134.66319427 17.15237155 132.65022278 19.06693649 C128.19988267 21.58198513 122.55509577 20.82711796 117.59442139 20.78741455 C116.24219588 20.79419362 114.8899796 20.80309839 113.53778076 20.81396484 C109.87233787 20.83673133 106.20759976 20.82793349 102.54214478 20.81206942 C98.70343143 20.79939637 94.86477777 20.81115441 91.02606201 20.81900024 C84.57998844 20.82809277 78.13420144 20.81611953 71.68817139 20.79229736 C64.2392607 20.76508654 56.7910343 20.773901 49.3421402 20.80142939 C42.94280395 20.82413099 36.54367351 20.82731551 30.14431 20.81423604 C26.32393683 20.80644718 22.50388514 20.80538402 18.68353271 20.82191849 C15.09141058 20.83637966 11.50016922 20.82631323 7.90814209 20.7974472 C5.96373704 20.78769938 4.01925735 20.80252272 2.07489014 20.81808472 C-7.42886291 20.70265185 -7.42886291 20.70265185 -10.53009033 17.74258423 C-12.80708871 14.29624759 -12.96369419 12.3160464 -12.74932861 8.29669189 C-11.94933608 4.84672412 -9.99339866 3.23116193 -7.24932861 1.14044189 C-4.68739892 -0.14052295 -2.86949435 0.00878934 0 0 Z " fill="#6B67F7" transform="translate(197.24932861328125,237.85955810546875)"/>
<path d="M0 0 C0.91884979 -0.0049649 1.83769958 -0.00992981 2.78439331 -0.01504517 C5.83372742 -0.02968779 8.88300951 -0.03647254 11.93237305 -0.04199219 C14.04745994 -0.04774223 16.16254681 -0.05349998 18.27763367 -0.05926514 C22.71715539 -0.06978132 27.15665897 -0.07561984 31.59619141 -0.07910156 C37.28595695 -0.08458538 42.97548307 -0.10860852 48.66517353 -0.13707352 C53.03605347 -0.15569475 57.40687572 -0.16090524 61.77779198 -0.16243744 C63.87536108 -0.16546602 65.97292912 -0.17350143 68.07045937 -0.18662262 C71.00549153 -0.203671 73.93993845 -0.20180565 76.875 -0.1953125 C77.74220169 -0.20452728 78.60940338 -0.21374207 79.50288391 -0.22323608 C84.19720843 -0.19069219 87.34259901 0.07800121 91.1315918 3.16113281 C93.57764885 6.83021839 93.97105582 9.8973205 93.1315918 14.16113281 C90.95584764 16.8521848 89.22093323 18.61646209 86.1315918 20.16113281 C83.19847802 20.27024039 80.28874733 20.31846953 77.35498047 20.32226562 C76.44588425 20.32723053 75.53678802 20.33219543 74.60014343 20.33731079 C71.58327485 20.35195301 68.56645887 20.35873811 65.54956055 20.36425781 C63.4568939 20.3700079 61.36422727 20.37576565 59.27156067 20.38153076 C54.87911737 20.39204684 50.4866924 20.39788542 46.09423828 20.40136719 C40.46500577 20.4068509 34.83601526 20.43087384 29.20685863 20.45933914 C24.88230176 20.47796108 20.5578032 20.48317091 16.23320961 20.48470306 C14.15796906 20.4877315 12.08272958 20.49576643 10.00752831 20.50888824 C7.10362719 20.52593806 4.20031754 20.52407093 1.29638672 20.51757812 C0.43853577 20.52679291 -0.41931519 20.53600769 -1.30316162 20.54550171 C-5.99337312 20.51264215 -9.04387258 20.18214331 -12.8684082 17.16113281 C-15.4341141 13.74019162 -15.30548875 10.31339797 -14.8684082 6.16113281 C-10.69240213 -0.24207649 -7.18702314 0.00919995 0 0 Z " fill="#6965F7" transform="translate(239.868408203125,370.8388671875)"/>
<path d="M0 0 C0.91870377 -0.0049649 1.83740753 -0.00992981 2.78395081 -0.01504517 C5.83872209 -0.02971054 8.89344141 -0.03647684 11.94824219 -0.04199219 C14.06475832 -0.04774104 16.18127444 -0.05349881 18.29779053 -0.05926514 C22.74328861 -0.06978827 27.18876855 -0.075622 31.63427734 -0.07910156 C37.33191866 -0.08458211 43.02932049 -0.10859533 48.72688675 -0.13707352 C53.1020579 -0.15569647 57.47717141 -0.16090537 61.85237885 -0.16243744 C63.95273902 -0.16546642 66.05309811 -0.17350316 68.15341949 -0.18662262 C71.09335005 -0.20367208 74.03269635 -0.2018052 76.97265625 -0.1953125 C77.84142899 -0.20452728 78.71020172 -0.21374207 79.6053009 -0.22323608 C84.3031068 -0.19072654 87.45382452 0.07463391 91.24511719 3.16113281 C93.69117424 6.83021839 94.08458121 9.8973205 93.24511719 14.16113281 C91.06937303 16.8521848 89.33445863 18.61646209 86.24511719 20.16113281 C83.31200342 20.27024039 80.40227272 20.31846953 77.46850586 20.32226562 C76.55940964 20.32723053 75.65031342 20.33219543 74.71366882 20.33731079 C71.69680024 20.35195301 68.67998426 20.35873811 65.66308594 20.36425781 C63.57041929 20.3700079 61.47775266 20.37576565 59.38508606 20.38153076 C54.99264276 20.39204684 50.6002178 20.39788542 46.20776367 20.40136719 C40.57853116 20.4068509 34.94954065 20.43087384 29.32038403 20.45933914 C24.99582715 20.47796108 20.67132859 20.48317091 16.346735 20.48470306 C14.27149445 20.4877315 12.19625497 20.49576643 10.1210537 20.50888824 C7.21715258 20.52593806 4.31384293 20.52407093 1.40991211 20.51757812 C0.55206116 20.52679291 -0.30578979 20.53600769 -1.18963623 20.54550171 C-5.87984773 20.51264215 -8.93034718 20.18214331 -12.75488281 17.16113281 C-15.32107978 13.73953686 -15.26472335 10.31269148 -14.75488281 6.16113281 C-12.31738281 3.28613281 -12.31738281 3.28613281 -9.75488281 1.16113281 C-7.64389576 -0.94985424 -2.91837912 0.00372043 0 0 Z " fill="#6865F7" transform="translate(239.7548828125,281.8388671875)"/>
<path d="M0 0 C1.89237774 -0.01655567 3.78469305 -0.04384069 5.67675781 -0.08203125 C8.40682369 -0.13684706 11.13542445 -0.15868052 13.8659668 -0.17333984 C15.13027275 -0.2073439 15.13027275 -0.2073439 16.42012024 -0.24203491 C20.75422631 -0.22647772 22.49954823 -0.06187743 26.04052734 2.66796875 C28.56884334 6.0698156 29.10823626 8.11495702 29.03393555 12.35009766 C27.45032807 15.45866049 26.02835526 17.56876789 23.28393555 19.72509766 C19.86997361 20.67342042 16.5723587 20.38591166 13.03393555 20.35009766 C13.04059738 20.95064972 13.04725922 21.55120178 13.05412292 22.16995239 C13.12059633 28.43176916 13.16578602 34.69348535 13.19873047 40.95556641 C13.21379816 43.29121982 13.23425603 45.62684502 13.26025391 47.96240234 C13.29672513 51.32347585 13.31368245 54.68417457 13.3269043 58.04541016 C13.34238815 59.08625763 13.35787201 60.1271051 13.37382507 61.19949341 C13.37508931 66.67037536 13.1781736 70.64797336 10.03393555 75.35009766 C6.68668219 77.98008244 3.15152034 77.78352763 -0.96606445 77.35009766 C-4.35546001 75.21330481 -5.69189002 74.17262096 -6.96606445 70.35009766 C-7.05345344 68.70851315 -7.08373066 67.06358143 -7.07958984 65.41967773 C-7.07951431 64.41886673 -7.07943878 63.41805573 -7.07936096 62.38691711 C-7.07419968 61.30871201 -7.06903839 60.2305069 -7.0637207 59.11962891 C-7.06230576 58.0140715 -7.06089081 56.9085141 -7.05943298 55.76945496 C-7.05382959 52.23380848 -7.0412765 48.69822503 -7.02856445 45.16259766 C-7.02354989 42.76741628 -7.01898691 40.37223391 -7.01489258 37.97705078 C-7.00385906 32.10137819 -6.98711761 26.22574242 -6.96606445 20.35009766 C-7.57514648 20.37257568 -8.18422852 20.39505371 -8.81176758 20.41821289 C-9.61549805 20.4356958 -10.41922852 20.45317871 -11.24731445 20.47119141 C-12.04202148 20.49366943 -12.83672852 20.51614746 -13.65551758 20.53930664 C-16.184159 20.33223805 -17.41580616 19.87915363 -19.46606445 18.41259766 C-22.29368572 14.9487616 -22.98567187 12.88995414 -23.2121582 8.50634766 C-22.83511595 5.20273931 -21.36888222 3.54695961 -18.96606445 1.35009766 C-13.83425329 -1.21580793 -5.71328279 0.03665854 0 0 Z " fill="#FC6152" transform="translate(81.966064453125,98.64990234375)"/>
<path d="M0 0 C5.6723946 3.26419488 10.59208241 7.99280972 12.6875 14.3125 C13.66804901 21.42148036 13.64451426 27.70402196 9.24609375 33.59765625 C3.83517064 39.55102779 -0.89423323 43.28599918 -9.125 43.6875 C-15.40466829 43.51979373 -19.75877795 41.77052043 -24.29296875 37.40625 C-30.16448471 30.9173169 -31.90900872 26.55579774 -31.75 17.7109375 C-30.94247895 11.43822931 -28.13758162 6.61619179 -23.23828125 2.62109375 C-16.08460789 -2.02019894 -7.99335896 -3.76873198 0 0 Z " fill="#29A2CC" transform="translate(103.3125,227.6875)"/>
<path d="M0 0 C6.17664527 2.78367185 11.05415047 8.0624254 13.58203125 14.34765625 C14.5163318 21.85465252 14.05605538 29.05411256 9.58203125 35.34765625 C4.40946265 40.36904331 -1.30474539 43.58884183 -8.60546875 43.84765625 C-16.21251627 43.71401893 -21.64991231 40.11571269 -26.91796875 34.84765625 C-30.80332455 28.37206325 -31.36435272 21.77237998 -30.41796875 14.34765625 C-27.99779581 8.02196818 -23.29688436 3.74768246 -17.625 0.23828125 C-12.31351645 -1.90511388 -5.46121169 -1.47338021 0 0 Z " fill="#28A2CC" transform="translate(102.41796875,315.65234375)"/>
<path d="M0 0 C4.55370174 3.53804768 7.19014755 7.24840207 8.34375 12.86328125 C9.02943045 20.73542027 7.91491386 26.7472407 2.96875 33.11328125 C-1.18778496 37.46774644 -5.02686719 39.5471541 -10.98828125 40.06640625 C-19.64408158 40.22998043 -25.42581847 37.81051135 -31.65625 31.86328125 C-35.89734471 25.8672508 -36.21857335 20.03290399 -35.65625 12.86328125 C-34.55214694 6.69134515 -31.53472739 3.13227231 -26.69140625 -0.7265625 C-18.5693643 -6.35431133 -7.96247368 -5.46481094 0 0 Z " fill="#28A2CC" transform="translate(107.65625,407.13671875)"/>
<path d="M0 0 C5.07386483 2.18816393 8.09196665 5.50917436 10.69921875 10.33203125 C12.28220628 15.08099384 12.74366213 19.80645911 10.79296875 24.5234375 C7.86668159 29.46623665 4.20637452 33.81226375 -1.17578125 36.14453125 C-7.8029685 36.72928307 -12.38242586 36.72960564 -18.30078125 33.33203125 C-22.10793899 29.70866733 -25.77500642 25.5844988 -26.63671875 20.25390625 C-26.74082029 14.46586037 -25.90358017 9.97672067 -22.30078125 5.33203125 C-15.79526441 -0.9980256 -8.69512937 -2.5243924 0 0 Z " fill="#FEFCFB" transform="translate(319.30078125,119.66796875)"/>
<path d="M0 0 C5.75459607 2.44876429 9.26589394 6.7288577 11.70703125 12.421875 C12.85978063 18.15902 12.10055389 23.52200388 9.15234375 28.59375 C5.64966459 33.0241658 1.51574278 35.90976771 -4.078125 36.9296875 C-10.32591761 37.18750563 -14.32478065 36.19769795 -19.29296875 32.421875 C-23.8903433 27.83647278 -25.45098727 24.07320536 -25.60546875 17.609375 C-25.54826081 12.33353188 -24.98580493 9.40625088 -21.29296875 5.421875 C-14.74427929 -0.6924626 -8.87136917 -2.23673362 0 0 Z " fill="#FEFCFC" transform="translate(153.29296875,119.578125)"/>
<path d="M0 0 C11 0 11 0 14 1.625 C20.02702139 8.7820879 19.72380757 16.04043607 19 25 C17.95445877 29.63674808 15.7012598 32.99272641 12 36 C9 37 9 37 0 37 C0 24.79 0 12.58 0 0 Z " fill="#FEFDFD" transform="translate(229,119)"/>
<path d="M0 0 C1.66285211 3.32570422 -0.01920148 6.68360945 -0.9375 10.125 C-1.13279297 10.87910156 -1.32808594 11.63320312 -1.52929688 12.41015625 C-2.01323358 14.27508306 -2.50580769 16.13776459 -3 18 C-3.33 18 -3.66 18 -4 18 C-4.738041 5.33029613 -4.738041 5.33029613 0 0 Z " fill="#D5D7F4" transform="translate(132,125)"/>
</svg>
